<?xml version="1.0" encoding="UTF-8"?>
<svg id="Capa_2" data-name="Capa 2" xmlns="http://www.w3.org/2000/svg" viewBox="0 0 127.74 139.83">
  <g id="OBJECTS">
    <g>
      <path d="m20.06,84.08c-.47-.01-.93-.03-1.4-.04,3.89-3.64,7.45-7.63,10.63-11.9-.36,1.5-.72,3-1.07,4.5,1.44-2,2.9-4.03,4.78-5.62,1.66-1.4,3.61-2.43,5.38-3.7,3.18-2.29,5.72-5.36,8.21-8.38-1.31,1.15-2.83,2.06-4.47,2.67,1.84-3.99,5.17-7.11,8.5-9.86.33-.27.68-.57.79-.98.12-.41-.13-.95-.56-.96,5.39-3.57,10.23-7.96,14.32-12.97-.4.11-.81.21-1.21.32.85-1.86,1.87-3.64,3.03-5.31-.46.1-.92.2-1.38.29,7.68-9.27,15.91-18.09,24.62-26.41-.65.22-1.31.44-1.96.66,2.35-2.31,4.87-4.44,7.53-6.37-6.25,2.29-12.18,5.46-17.57,9.37,1.39-1.37,2.79-2.73,4.18-4.1-2.63,1.48-5.27,2.95-7.9,4.43.79-.85,1.58-1.69,2.36-2.54-4.08,2.46-8.15,4.91-12.23,7.37-3.21,1.94-6.48,3.92-8.93,6.76-2.09,2.26-4.18,4.52-6.26,6.78.19-.66.45-1.28.7-1.9-4.8,4.3-9.26,8.98-13.31,13.98,1.29-.88,2.71-1.57,4.2-2.05-.91,1.39-2,2.66-3.23,3.77,1.98-1.12,3.96-2.25,5.94-3.37-7.49,6.5-14.54,13.52-21.08,20.98-3.98,7.19-7.9,14.71-11.42,22.4-.02-.07-.07-.14-.15-.14-.21-.01-.36.18-.47.36-3.41,5.49-5.75,11.64-6.64,18.43.38-.2.76-.39,1.14-.59-.39,1.04-.78,2.07-1.17,3.11,4.53-6.97,9.95-13.36,16.09-18.96Z"/>
      <path d="m8.85,58.58c-.06.08-.12.15-.18.22.13-.01.26-.11.18-.22Z"/>
      <path d="m8.68,58.8c-.07,0-.14,0-.18-.06-.12-.17-.03-.4.06-.59,1.12-2.18,3.01-3.84,4.86-5.46,3.75-3.27,7.49-6.53,11.24-9.8-.68-.11-1.35-.23-2.03-.34,1.4-2.19,2.31-4.7,2.63-7.28.35,1.21.42,2.5.2,3.74,1.43-2.98,3.35-5.72,5.65-8.1-1.02.11-1.86.82-3.16,2.25-.05.05-.1.11-.15.16,4.24-6.59,9.89-12.25,16.44-16.53-1.17.1-2.32.45-3.36,1.02.79-.33,1.52-.78,2.18-1.33-.76.01-1.52.02-2.29.03,2.82-2.43,5.99-4.45,9.38-5.97-6.81,1.71-13.41,4.23-19.63,7.49.27-.53.54-1.05.81-1.58-7.78,4.69-14.6,10.98-19.91,18.36,1.09-.35,2.11-.93,2.97-1.69-.77,1.1-1.54,2.2-2.31,3.3,1.3-.6,2.5-1.39,3.57-2.34-4.07,6.06-7.36,12.66-9.76,19.56-.1-.37-.19-.73-.29-1.1-1.78,4.91-3.56,9.82-5.62,15.25,1.38-1.89,2.76-3.78,4.14-5.66-.25.95-.49,1.9-.74,2.85,1.88-1.95,3.64-4.02,5.28-6.19Z"/>
      <path d="m14.94,112.93c3.31-2.1,6.69-4.1,10.12-6.01-.62.77-1.25,1.55-1.87,2.32,4.39-2.02,8.27-5.15,11.15-9.03-.62,1.3-1.23,2.6-1.85,3.89,4.62-4.96,9.71-9.48,15.18-13.48.31-.23.66-.55.57-.92-.03-.14-.16-.2-.29-.21,1.49-1.42,2.97-2.84,4.46-4.27-.2.63-.4,1.25-.59,1.88,1.83-1.77,3.84-3.36,5.99-4.73-.71.1-1.42.2-2.13.29,2.23-1.94,4.46-3.88,6.68-5.82-.22.12-.07.5.18.54.25.04.48-.13.67-.29,3.16-2.57,6.18-5.31,9.03-8.22-.59-.22-1.18-.44-1.77-.66.52-.18,1.03-.99.49-1.09,3.08-2.91,5.88-6.11,8.37-9.54-.34,1.22-.68,2.45-1.02,3.67,1-3.77,6.07-5.16,7.38-8.83-.38,1.55-.77,3.11-1.15,4.66,1.01-1.41,2.02-2.82,3.02-4.23,1.79-2.51,5.93-6.66,10.55-10.09-2.08.27-4.11.95-5.93,2,4.69-4.78,9.38-9.57,14.07-14.35-.53-.06-1.08.08-1.5.39.57-1.01,1.15-2.02,1.72-3.03-.42.2-.84.39-1.26.59,3.18-4.21,6.64-8.21,10.35-11.97-.57.14-1.15.29-1.72.43,3.31-3.71,6.79-7.27,10.41-10.68-4.76,2.89-9.39,5.99-13.88,9.28,2.69-2.47,5.22-5.12,7.55-7.93-4.69,2.36-9.23,5.01-13.58,7.95.41-.75.82-1.51,1.23-2.26-9.54,7.28-19.07,14.57-28.61,21.85-.7,1.39-2,2.55-3.49,3.35-2.29,2.54-4.58,5.07-6.86,7.61,2.5-1.41,5.01-2.82,7.51-4.23-5.21,8.73-15.19,13.74-20.55,22.37.08-.48.16-.95.24-1.43-5.42,4.47-10.48,9.37-15.1,14.66,1.42-.31,2.79-.93,3.86-1.9-4.66,5.75-9.47,11.38-14.43,16.87,1.4-.67,2.8-1.34,4.2-2.02-6.81,7.36-13.62,14.72-20.51,22.35,1.41-.9,2.94-1.62,4.53-2.12-.47.79-.94,1.58-1.41,2.36Z"/>
      <path d="m118.88,43c.17-.43.34-.85.51-1.28-8.12,5.34-15.98,11.08-23.55,17.18.72.2,1.43.4,2.15.59-2.91,3.08-6.04,5.95-9.35,8.6.3-.29-.46-.47-.79-.22-7.19,5.4-12.27,13.29-19.73,18.3-.55.37-1.67.35-1.48-.28-3.73,4.97-7.86,9.63-12.33,13.94.12-.89.23-1.77.35-2.66-3.77,5.09-7.54,10.18-11.32,15.27-.28.38-.68.81-1.15.71-.23-.05-.31-.32-.27-.54-6.26,4.31-12.52,8.62-18.64,12.91,3.1-.55,6.19-1.1,9.29-1.64-1,1.05-2.15,1.97-3.4,2.71,3.48-.89,6.86-2.19,10.04-3.86-.18.4-.36.8-.54,1.21,4.85-1.93,9.64-4.03,14.34-6.3,0,.07.01.14.08.2.35.34.93.1,1.35-.14,2.96-1.74,5.86-3.59,8.7-5.54-.01-.01-.03-.02-.04-.04-.21-.4.11-.86.42-1.19,2.7-2.93,5.4-5.85,8.09-8.78-.36.95-.71,1.91-1.07,2.86.99-1.14,2.2-2.1,3.54-2.8-.22.73-.44,1.47-.66,2.2,1.19-.86,2.38-1.72,3.56-2.58-.39,1.08-.77,2.16-1.16,3.24,5.13-7.14,11.21-13.59,18.02-19.15,3.87-3.15,8.16-6.25,10.04-10.87-.43,1.04-1.42,1.84-2.53,2.04,6.73-7.94,13.5-15.93,18.82-24.88-1.35.88-2.7,1.75-4.06,2.63.08-.66.39-1.29.53-1.5,2.64-3.66,5.28-7.32,7.92-10.99.32-.44.63-1.09.24-1.47,0,0,0,0,0,0,.98-1.54,1.96-3.08,2.94-4.62-2.96,2.24-5.91,4.48-8.87,6.73Z"/>
      <path d="m63.7,111.78c-.19.13-.38.25-.57.38.25.3.95-.17.57-.38Z"/>
      <path d="m41.92,112.61c.13-.09.26-.18.38-.26-.2-.12-.35.05-.38.26Z"/>
      <path d="m118.71,82.28c.75-1.72,1.5-3.45,2.25-5.17-5.61,5.85-11.79,11.15-18.41,15.81.63-.23,1.26-.45,1.88-.68-5.74,4.91-11.48,9.83-17.21,14.74,1.55-.17,3.05-.77,4.29-1.72-5.7,5.83-11.61,11.46-17.71,16.88.26-.96.52-1.91.77-2.86-8.97,8.18-19.32,14.84-30.21,19.99,4.49-.14,8.98-.48,13.44-1.04-.73.53-1.47,1.07-2.2,1.6,7.66-2.35,15.04-5.62,21.93-9.71-.72,1.18-1.45,2.36-2.17,3.54,2.13-1.5,4.27-3.01,6.4-4.51.25.5.12,1.16-.29,1.53,8.01-4.17,15.25-9.81,21.25-16.55-.28.94-.57,1.89-.85,2.83,4.23-3.75,7.39-8.69,9.02-14.11.03.95.05,1.91.08,2.86.46-1.22,1.14-2.37,1.46-1.97,3.26-8.07,6.52-16.15,9.77-24.22-.97,1.15-2.17,2.09-3.52,2.76Z"/>
    </g>
  </g>
</svg>